# xmcd CD database file
#
# Track frame offsets:
#	150
#	22420
#	41715
#	63875
#
# Disc length: 1107 seconds
#
# Revision: 0
# Processed by: cddbd v1.5.1PL2 Copyright (c) Steve Scherf et al.
# Submitted via: CDex 1.51
#
DISCID=33045104
DTITLE=ＪＡＹ　ＷＡＬＫ - ＳＨＥ　ＳＡＩＤ．．．
DYEAR=1997
DGENRE=JPop
TTITLE0=ＳＨＥ　ＳＡＩＤ．．．
TTITLE1=ＲＩＶＡＬ
TTITLE2=ＳＨＥ　ＳＡＩＤ．．．（ＯｒｉｇｉｎａｌＫａｒａｏｋｅ）
TTITLE3=ＲＩＶＡＬ（ＯｒｉｇｉｎａｌＫａｒａｏｋｅ）
EXTD=YEAR: 1997
EXTT0=
EXTT1=
EXTT2=
EXTT3=
PLAYORDER=
